<?xml version="1.0" standalone="no"?>
<!DOCTYPE svg PUBLIC "-//W3C//DTD SVG 20010904//EN"
 "http://www.w3.org/TR/2001/REC-SVG-20010904/DTD/svg10.dtd">
<svg version="1.0" xmlns="http://www.w3.org/2000/svg"
 width="700.000000pt" height="700.000000pt" viewBox="0 0 700.000000 700.000000"
 preserveAspectRatio="xMidYMid meet">
<metadata>
Created by potrace 1.14, written by Peter Selinger 2001-2017
</metadata>
<g transform="translate(0.000000,700.000000) scale(0.100000,-0.100000)"
fill="#000000" stroke="none">
<path d="M1341 6989 c-41 -5 -120 -20 -176 -33 -274 -66 -508 -199 -715 -406
-219 -218 -349 -458 -422 -775 l-22 -100 -4 -2065 c-2 -1440 0 -2095 8 -2165
65 -597 470 -1098 1037 -1284 248 -82 68 -76 2418 -76 2301 0 2138 -4 2359 60
494 143 888 537 1031 1031 64 221 60 58 60 2359 0 2351 6 2170 -76 2419 -76
231 -193 420 -374 601 -190 191 -413 320 -672 391 -203 55 -138 54 -2343 53
-1119 -1 -2068 -5 -2109 -10z m1792 -1594 c31 -8 84 -28 116 -45 l59 -29 -119
-285 c-65 -157 -119 -294 -119 -304 0 -37 19 -42 171 -42 153 0 192 -7 203
-36 3 -9 -14 -90 -39 -179 -25 -89 -45 -170 -45 -179 0 -22 26 -31 45 -16 15
12 379 486 409 533 17 25 17 29 2 52 -16 25 -19 25 -149 25 -144 0 -177 10
-177 53 0 13 36 106 79 207 74 173 82 186 118 207 59 34 148 53 243 53 158 0
281 -52 395 -165 267 -267 226 -634 -117 -1040 -105 -123 -235 -249 -485 -468
-225 -197 -253 -214 -306 -185 -46 24 -483 416 -604 541 -434 450 -511 858
-218 1153 74 74 157 123 251 149 67 18 217 18 287 0z m-435 -2191 c163 -33
278 -99 422 -239 47 -46 103 -92 125 -103 114 -56 385 -117 639 -142 54 -6
117 -18 140 -29 94 -41 146 -132 131 -228 -6 -40 -16 -57 -58 -99 -34 -33 -66
-56 -92 -63 -25 -7 -161 -11 -373 -11 -350 0 -435 7 -625 52 -51 12 -112 22
-137 22 -42 1 -45 -1 -48 -26 -4 -35 7 -40 153 -73 214 -48 301 -55 695 -55
385 0 448 6 545 49 25 11 263 162 529 335 265 174 505 325 532 337 68 31 180
37 239 15 61 -24 111 -84 125 -152 15 -71 5 -114 -42 -185 -70 -104 -60 -97
-1188 -811 -300 -190 -572 -359 -606 -376 -154 -78 -312 -88 -487 -32 -34 11
-273 126 -532 256 -494 249 -522 260 -598 235 -20 -7 -102 -55 -183 -107 -81
-52 -159 -98 -174 -101 -55 -11 -74 22 -325 565 -253 550 -254 552 -201 587
34 22 542 239 691 295 139 52 259 88 340 101 71 11 271 2 363 -17z m1756 11
c38 -8 96 -27 129 -42 l60 -28 -286 -188 c-268 -175 -288 -186 -314 -176 -15
6 -95 17 -177 25 -173 16 -277 34 -270 45 10 17 530 323 579 342 101 38 174
44 279 22z m587 -100 c84 -30 159 -111 127 -140 -10 -9 -894 -579 -945 -609
-7 -4 -3 14 8 40 17 36 20 61 17 113 -4 74 -25 124 -69 169 l-30 31 223 147
c249 164 343 218 426 245 70 22 185 24 243 4z"/>
</g>
</svg>
