<svg width="56" height="33" viewBox="0 0 56 33" fill="none" xmlns="http://www.w3.org/2000/svg">
<path d="M23.2241 0.320113C22.5866 0.325425 22.0394 0.776989 21.9066 1.40386L18.0975 19.9126L15.675 13.442C15.4838 12.9373 15.011 12.592 14.4691 12.5654C13.9325 12.5336 13.4279 12.8311 13.1835 13.3092L10.8407 18.0001H6.24005C6.12317 18.0001 6.0063 18.0161 5.89474 18.0426C5.41661 17.1767 4.50817 16.6401 3.52005 16.6401C2.01661 16.6401 0.800049 17.8567 0.800049 19.3601C0.800049 20.8636 2.01661 22.0801 3.52005 22.0801C4.50817 22.0801 5.41661 21.5436 5.90005 20.6776C6.01161 20.7095 6.12317 20.7201 6.24005 20.7201H11.68C12.1954 20.7201 12.6682 20.4279 12.8966 19.9711L14.2247 17.3201L17.205 25.2782C17.4229 25.8414 17.986 26.1973 18.5863 26.1495C19.1866 26.107 19.686 25.666 19.8135 25.0764L23.155 8.82543L27.3413 31.8445C27.4475 32.4448 27.9469 32.9017 28.5525 32.9548C29.1582 33.0132 29.7319 32.6573 29.9497 32.0889L35.4641 17.7504L38.285 25.2782C38.471 25.7617 38.9119 26.1017 39.4272 26.1495C39.9372 26.2026 40.4366 25.9582 40.7129 25.5226L43.7144 20.7201H50.1266C50.6154 21.5595 51.5079 22.0801 52.48 22.0801C53.9835 22.0801 55.2 20.8636 55.2 19.3601C55.2 17.8567 53.9835 16.6401 52.48 16.6401C51.5079 16.6401 50.61 17.1607 50.1266 18.0001H42.96C42.4925 18.0001 42.0569 18.2445 41.8072 18.6376L39.8629 21.7454L36.755 13.442C36.5532 12.916 36.0485 12.5654 35.4854 12.5601C34.9222 12.5601 34.4122 12.9054 34.2104 13.4314L29.1475 26.5851L24.5788 1.43574C24.4619 0.782302 23.8882 0.314801 23.2241 0.320113Z" fill="#015BBB"/>
</svg>
