<svg width="491" height="440" viewBox="0 0 491 440" fill="none" xmlns="http://www.w3.org/2000/svg">
<path d="M485.86 287.793L485.861 287.813L485.862 287.833C488.217 334.375 460.2 382.677 422.782 399.345L422.773 399.349L422.764 399.353C404.345 407.643 383.075 408.335 358.402 407.669C354.198 407.556 349.899 407.403 345.513 407.248C324.458 406.5 301.384 405.68 277.022 408.783L277.002 408.785L276.983 408.788C262.335 410.771 247.241 414.205 232.113 417.911C228.235 418.861 224.36 419.827 220.487 420.793C209.17 423.615 197.872 426.433 186.58 428.82C156.238 435.233 127.044 438.264 100.616 429.868C74.1927 421.473 49.8675 401.42 32.3127 375.459C14.7706 349.517 4.25608 318.062 5.04111 287.299L5.04113 287.298C5.82561 256.358 17.9011 225.594 36.8951 195.199C55.8855 164.809 81.5962 135.095 109.232 106.306C136.878 77.5043 165.923 50.2784 194.651 31.2859C223.469 12.2343 251.203 1.97783 276.478 5.7889C301.619 9.81605 325.498 28.1688 348.388 53.5554C369.683 77.1733 389.481 106.131 408.163 133.457C409.489 135.397 410.81 137.329 412.125 139.25C414.536 142.782 416.921 146.265 419.275 149.703C436.109 174.291 451.366 196.574 463.083 217.943C476.414 242.257 484.888 264.923 485.86 287.793Z" stroke="#015BBB" stroke-width="10"/>
</svg>
