<svg width="181" height="44" viewBox="0 0 181 44" fill="none" xmlns="http://www.w3.org/2000/svg">
<path d="M64.888 24.24C63.544 24.24 62.328 24.024 61.24 23.592C60.168 23.16 59.24 22.552 58.456 21.768C57.672 20.984 57.072 20.064 56.656 19.008C56.24 17.952 56.032 16.8 56.032 15.552C56.032 14.304 56.256 13.152 56.704 12.096C57.152 11.04 57.776 10.12 58.576 9.336C59.392 8.552 60.352 7.944 61.456 7.512C62.576 7.08 63.8 6.864 65.128 6.864C66.04 6.864 66.904 6.984 67.72 7.224C68.552 7.464 69.304 7.792 69.976 8.208C70.664 8.624 71.232 9.096 71.68 9.624L69.16 12.264C68.584 11.72 67.96 11.296 67.288 10.992C66.632 10.672 65.888 10.512 65.056 10.512C64.368 10.512 63.728 10.64 63.136 10.896C62.56 11.136 62.048 11.488 61.6 11.952C61.168 12.4 60.832 12.936 60.592 13.56C60.352 14.168 60.232 14.832 60.232 15.552C60.232 16.272 60.36 16.936 60.616 17.544C60.872 18.152 61.224 18.688 61.672 19.152C62.136 19.6 62.672 19.952 63.28 20.208C63.888 20.464 64.544 20.592 65.248 20.592C65.744 20.592 66.2 20.52 66.616 20.376C67.048 20.216 67.424 20.008 67.744 19.752C68.08 19.48 68.336 19.168 68.512 18.816C68.704 18.448 68.8 18.056 68.8 17.64V17.016L69.328 17.832H64.744V14.592H72.64C72.672 14.768 72.696 15.008 72.712 15.312C72.728 15.616 72.736 15.912 72.736 16.2C72.752 16.472 72.76 16.688 72.76 16.848C72.76 17.936 72.56 18.936 72.16 19.848C71.776 20.744 71.224 21.52 70.504 22.176C69.8 22.832 68.968 23.344 68.008 23.712C67.048 24.064 66.008 24.24 64.888 24.24ZM75.454 24V6.24H79.318V24H75.454ZM88.4847 24.24C87.1727 24.24 85.9967 23.96 84.9567 23.4C83.9167 22.824 83.1007 22.04 82.5087 21.048C81.9167 20.04 81.6207 18.904 81.6207 17.64C81.6207 16.344 81.9167 15.2 82.5087 14.208C83.1007 13.2 83.9167 12.416 84.9567 11.856C85.9967 11.28 87.1727 10.992 88.4847 10.992C89.8127 10.992 90.9887 11.28 92.0127 11.856C93.0527 12.416 93.8687 13.2 94.4607 14.208C95.0527 15.2 95.3487 16.344 95.3487 17.64C95.3487 18.904 95.0527 20.04 94.4607 21.048C93.8687 22.04 93.0527 22.824 92.0127 23.4C90.9887 23.96 89.8127 24.24 88.4847 24.24ZM88.4847 20.928C89.0607 20.928 89.5647 20.784 89.9967 20.496C90.4447 20.208 90.7967 19.816 91.0527 19.32C91.3087 18.824 91.4287 18.264 91.4127 17.64C91.4287 16.984 91.3087 16.408 91.0527 15.912C90.7967 15.4 90.4447 15.008 89.9967 14.736C89.5647 14.448 89.0607 14.304 88.4847 14.304C87.9247 14.304 87.4207 14.448 86.9727 14.736C86.5247 15.024 86.1727 15.416 85.9167 15.912C85.6607 16.408 85.5327 16.984 85.5327 17.64C85.5327 18.264 85.6607 18.824 85.9167 19.32C86.1727 19.816 86.5247 20.208 86.9727 20.496C87.4207 20.784 87.9247 20.928 88.4847 20.928ZM105.516 24.24C104.94 24.24 104.388 24.16 103.86 24C103.348 23.84 102.876 23.632 102.444 23.376C102.012 23.104 101.652 22.792 101.364 22.44C101.092 22.088 100.916 21.72 100.836 21.336L101.676 21.048L101.46 23.952H97.8603V6.24H101.748V14.232L100.956 13.968C101.052 13.568 101.236 13.192 101.508 12.84C101.78 12.488 102.116 12.176 102.516 11.904C102.932 11.616 103.388 11.392 103.884 11.232C104.38 11.072 104.892 10.992 105.42 10.992C106.524 10.992 107.5 11.28 108.348 11.856C109.212 12.432 109.892 13.224 110.388 14.232C110.884 15.224 111.132 16.36 111.132 17.64C111.132 18.92 110.884 20.056 110.388 21.048C109.908 22.04 109.244 22.824 108.396 23.4C107.548 23.96 106.588 24.24 105.516 24.24ZM104.508 21C105.084 21 105.58 20.864 105.996 20.592C106.428 20.304 106.764 19.912 107.004 19.416C107.244 18.904 107.364 18.312 107.364 17.64C107.364 16.952 107.244 16.36 107.004 15.864C106.78 15.352 106.452 14.96 106.02 14.688C105.588 14.4 105.084 14.256 104.508 14.256C103.932 14.256 103.428 14.4 102.996 14.688C102.564 14.96 102.228 15.352 101.988 15.864C101.748 16.36 101.628 16.952 101.628 17.64C101.628 18.312 101.748 18.904 101.988 19.416C102.228 19.912 102.564 20.304 102.996 20.592C103.428 20.864 103.932 21 104.508 21ZM120.449 24V16.176C120.449 15.52 120.265 15.04 119.897 14.736C119.545 14.416 119.049 14.256 118.409 14.256C117.785 14.256 117.225 14.376 116.729 14.616C116.249 14.84 115.785 15.216 115.337 15.744L113.033 13.512C113.801 12.728 114.681 12.112 115.673 11.664C116.665 11.216 117.745 10.992 118.913 10.992C119.985 10.992 120.913 11.152 121.697 11.472C122.481 11.792 123.089 12.28 123.521 12.936C123.953 13.592 124.169 14.424 124.169 15.432V24H120.449ZM117.137 24.24C116.337 24.24 115.609 24.08 114.953 23.76C114.313 23.44 113.801 23 113.417 22.44C113.049 21.864 112.865 21.192 112.865 20.424C112.865 19.768 112.985 19.192 113.225 18.696C113.465 18.2 113.817 17.792 114.281 17.472C114.761 17.136 115.353 16.888 116.057 16.728C116.777 16.552 117.609 16.464 118.553 16.464H122.417L122.201 18.888H118.649C118.313 18.888 118.017 18.92 117.761 18.984C117.505 19.032 117.289 19.12 117.113 19.248C116.937 19.36 116.801 19.496 116.705 19.656C116.625 19.816 116.585 20.008 116.585 20.232C116.585 20.472 116.649 20.68 116.777 20.856C116.905 21.032 117.073 21.168 117.281 21.264C117.505 21.36 117.761 21.408 118.049 21.408C118.465 21.408 118.857 21.344 119.225 21.216C119.609 21.072 119.945 20.872 120.233 20.616C120.537 20.36 120.777 20.064 120.953 19.728L121.625 21.456C121.289 22 120.881 22.48 120.401 22.896C119.937 23.312 119.425 23.64 118.865 23.88C118.321 24.12 117.745 24.24 117.137 24.24ZM127.251 24V6.24H131.115V24H127.251ZM140.5 24L147.148 7.2H150.628L157.228 24H153.1L149.908 15.48C149.796 15.144 149.668 14.784 149.524 14.4C149.396 14.016 149.268 13.616 149.14 13.2C149.012 12.784 148.892 12.384 148.78 12C148.668 11.616 148.572 11.256 148.492 10.92L149.188 10.896C149.092 11.296 148.988 11.688 148.876 12.072C148.764 12.456 148.644 12.84 148.516 13.224C148.388 13.608 148.252 13.992 148.108 14.376C147.98 14.744 147.844 15.128 147.7 15.528L144.532 24H140.5ZM143.668 20.784L144.964 17.664H152.644L153.94 20.784H143.668ZM159.154 24V11.256H163.018V24H159.154ZM161.098 8.736C160.362 8.736 159.786 8.568 159.37 8.232C158.97 7.88 158.77 7.384 158.77 6.744C158.77 6.152 158.978 5.672 159.394 5.304C159.81 4.936 160.378 4.752 161.098 4.752C161.802 4.752 162.354 4.928 162.754 5.28C163.17 5.616 163.378 6.104 163.378 6.744C163.378 7.336 163.17 7.816 162.754 8.184C162.354 8.552 161.802 8.736 161.098 8.736ZM171.497 24.24C170.409 24.24 169.425 23.96 168.545 23.4C167.681 22.84 167.001 22.064 166.505 21.072C166.009 20.064 165.761 18.92 165.761 17.64C165.761 16.36 166.009 15.224 166.505 14.232C167.001 13.224 167.681 12.432 168.545 11.856C169.425 11.28 170.417 10.992 171.521 10.992C172.097 10.992 172.649 11.08 173.177 11.256C173.721 11.432 174.201 11.672 174.617 11.976C175.049 12.28 175.401 12.624 175.673 13.008C175.945 13.392 176.113 13.8 176.177 14.232L175.241 14.448V6.24H179.105V24H175.505L175.289 21.12L176.057 21.264C176.025 21.648 175.881 22.024 175.625 22.392C175.369 22.744 175.025 23.064 174.593 23.352C174.177 23.624 173.705 23.84 173.177 24C172.649 24.16 172.089 24.24 171.497 24.24ZM172.457 21.048C173.049 21.048 173.553 20.912 173.969 20.64C174.401 20.352 174.737 19.952 174.977 19.44C175.217 18.928 175.337 18.328 175.337 17.64C175.337 16.936 175.217 16.328 174.977 15.816C174.737 15.304 174.401 14.912 173.969 14.64C173.553 14.352 173.049 14.208 172.457 14.208C171.881 14.208 171.377 14.352 170.945 14.64C170.529 14.912 170.201 15.304 169.961 15.816C169.721 16.328 169.601 16.936 169.601 17.64C169.601 18.328 169.721 18.928 169.961 19.44C170.201 19.952 170.529 20.352 170.945 20.64C171.377 20.912 171.881 21.048 172.457 21.048ZM56.131 40V30.9H58.354V40H56.131ZM57.171 36.516V34.657H61.903V36.516H57.171ZM57.171 32.863V30.9H62.423V32.863H57.171ZM67.0057 40.13C66.295 40.13 65.658 39.9783 65.0947 39.675C64.5314 39.363 64.0894 38.9383 63.7687 38.401C63.448 37.855 63.2877 37.2397 63.2877 36.555C63.2877 35.853 63.448 35.2333 63.7687 34.696C64.0894 34.15 64.5314 33.7253 65.0947 33.422C65.658 33.11 66.295 32.954 67.0057 32.954C67.725 32.954 68.362 33.11 68.9167 33.422C69.48 33.7253 69.922 34.15 70.2427 34.696C70.5634 35.2333 70.7237 35.853 70.7237 36.555C70.7237 37.2397 70.5634 37.855 70.2427 38.401C69.922 38.9383 69.48 39.363 68.9167 39.675C68.362 39.9783 67.725 40.13 67.0057 40.13ZM67.0057 38.336C67.3177 38.336 67.5907 38.258 67.8247 38.102C68.0674 37.946 68.258 37.7337 68.3967 37.465C68.5354 37.1963 68.6004 36.893 68.5917 36.555C68.6004 36.1997 68.5354 35.8877 68.3967 35.619C68.258 35.3417 68.0674 35.1293 67.8247 34.982C67.5907 34.826 67.3177 34.748 67.0057 34.748C66.7024 34.748 66.4294 34.826 66.1867 34.982C65.944 35.138 65.7534 35.3503 65.6147 35.619C65.476 35.8877 65.4067 36.1997 65.4067 36.555C65.4067 36.893 65.476 37.1963 65.6147 37.465C65.7534 37.7337 65.944 37.946 66.1867 38.102C66.4294 38.258 66.7024 38.336 67.0057 38.336ZM74.4371 40.13C73.9345 40.13 73.5011 40.0217 73.1371 39.805C72.7731 39.5797 72.4915 39.2633 72.2921 38.856C72.1015 38.44 72.0061 37.9417 72.0061 37.361V33.097H74.0991V37.049C74.0991 37.4737 74.1988 37.8073 74.3981 38.05C74.6061 38.284 74.8921 38.401 75.2561 38.401C75.4381 38.401 75.6028 38.375 75.7501 38.323C75.8975 38.2623 76.0231 38.18 76.1271 38.076C76.2398 37.9633 76.3265 37.8333 76.3871 37.686C76.4478 37.5387 76.4781 37.3783 76.4781 37.205V33.097H78.5711V40H76.6081L76.5301 38.583L76.9071 38.427C76.8118 38.7477 76.6385 39.038 76.3871 39.298C76.1445 39.558 75.8541 39.7617 75.5161 39.909C75.1781 40.0563 74.8185 40.13 74.4371 40.13ZM80.4376 40V33.097H82.4266L82.5046 34.501L82.0756 34.657C82.171 34.345 82.34 34.0633 82.5826 33.812C82.834 33.552 83.133 33.344 83.4796 33.188C83.8263 33.032 84.1903 32.954 84.5716 32.954C85.0916 32.954 85.5293 33.0623 85.8846 33.279C86.24 33.487 86.5043 33.8033 86.6776 34.228C86.8596 34.644 86.9506 35.1597 86.9506 35.775V40H84.8576V35.931C84.8576 35.6537 84.8186 35.424 84.7406 35.242C84.6626 35.06 84.5456 34.9257 84.3896 34.839C84.2336 34.7523 84.0386 34.7133 83.8046 34.722C83.6226 34.722 83.4536 34.7523 83.2976 34.813C83.1416 34.865 83.003 34.9473 82.8816 35.06C82.769 35.164 82.6823 35.2853 82.6216 35.424C82.561 35.5627 82.5306 35.7187 82.5306 35.892V40H81.4776C81.2523 40 81.0486 40 80.8666 40C80.6933 40 80.5503 40 80.4376 40ZM91.3283 40.13C90.739 40.13 90.206 39.9783 89.7293 39.675C89.2613 39.3717 88.893 38.9513 88.6243 38.414C88.3556 37.868 88.2213 37.2483 88.2213 36.555C88.2213 35.8617 88.3556 35.2463 88.6243 34.709C88.893 34.163 89.2613 33.734 89.7293 33.422C90.206 33.11 90.7433 32.954 91.3413 32.954C91.6533 32.954 91.9523 33.0017 92.2383 33.097C92.533 33.1923 92.793 33.3223 93.0183 33.487C93.2523 33.6517 93.443 33.838 93.5903 34.046C93.7376 34.254 93.8286 34.475 93.8633 34.709L93.3563 34.826V30.38H95.4493V40H93.4993L93.3823 38.44L93.7983 38.518C93.781 38.726 93.703 38.9297 93.5643 39.129C93.4256 39.3197 93.2393 39.493 93.0053 39.649C92.78 39.7963 92.5243 39.9133 92.2383 40C91.9523 40.0867 91.649 40.13 91.3283 40.13ZM91.8483 38.401C92.169 38.401 92.442 38.3273 92.6673 38.18C92.9013 38.024 93.0833 37.8073 93.2133 37.53C93.3433 37.2527 93.4083 36.9277 93.4083 36.555C93.4083 36.1737 93.3433 35.8443 93.2133 35.567C93.0833 35.2897 92.9013 35.0773 92.6673 34.93C92.442 34.774 92.169 34.696 91.8483 34.696C91.5363 34.696 91.2633 34.774 91.0293 34.93C90.804 35.0773 90.6263 35.2897 90.4963 35.567C90.3663 35.8443 90.3013 36.1737 90.3013 36.555C90.3013 36.9277 90.3663 37.2527 90.4963 37.53C90.6263 37.8073 90.804 38.024 91.0293 38.18C91.2633 38.3273 91.5363 38.401 91.8483 38.401ZM100.887 40V35.762C100.887 35.4067 100.787 35.1467 100.588 34.982C100.397 34.8087 100.129 34.722 99.7822 34.722C99.4442 34.722 99.1408 34.787 98.8722 34.917C98.6122 35.0383 98.3608 35.242 98.1182 35.528L96.8702 34.319C97.2862 33.8943 97.7628 33.5607 98.3002 33.318C98.8375 33.0753 99.4225 32.954 100.055 32.954C100.636 32.954 101.138 33.0407 101.563 33.214C101.988 33.3873 102.317 33.6517 102.551 34.007C102.785 34.3623 102.902 34.813 102.902 35.359V40H100.887ZM99.0932 40.13C98.6598 40.13 98.2655 40.0433 97.9102 39.87C97.5635 39.6967 97.2862 39.4583 97.0782 39.155C96.8788 38.843 96.7792 38.479 96.7792 38.063C96.7792 37.7077 96.8442 37.3957 96.9742 37.127C97.1042 36.8583 97.2948 36.6373 97.5462 36.464C97.8062 36.282 98.1268 36.1477 98.5082 36.061C98.8982 35.9657 99.3488 35.918 99.8602 35.918H101.953L101.836 37.231H99.9122C99.7302 37.231 99.5698 37.2483 99.4312 37.283C99.2925 37.309 99.1755 37.3567 99.0802 37.426C98.9848 37.4867 98.9112 37.5603 98.8592 37.647C98.8158 37.7337 98.7942 37.8377 98.7942 37.959C98.7942 38.089 98.8288 38.2017 98.8982 38.297C98.9675 38.3923 99.0585 38.466 99.1712 38.518C99.2925 38.57 99.4312 38.596 99.5872 38.596C99.8125 38.596 100.025 38.5613 100.224 38.492C100.432 38.414 100.614 38.3057 100.77 38.167C100.935 38.0283 101.065 37.868 101.16 37.686L101.524 38.622C101.342 38.9167 101.121 39.1767 100.861 39.402C100.61 39.6273 100.332 39.805 100.029 39.935C99.7345 40.065 99.4225 40.13 99.0932 40.13ZM105.143 40V31.355H107.236V40H105.143ZM103.921 34.93V33.097H108.562V34.93H103.921ZM109.881 40V33.097H111.974V40H109.881ZM110.934 31.732C110.535 31.732 110.223 31.641 109.998 31.459C109.781 31.2683 109.673 30.9997 109.673 30.653C109.673 30.3323 109.785 30.0723 110.011 29.873C110.236 29.6737 110.544 29.574 110.934 29.574C111.315 29.574 111.614 29.6693 111.831 29.86C112.056 30.042 112.169 30.3063 112.169 30.653C112.169 30.9737 112.056 31.2337 111.831 31.433C111.614 31.6323 111.315 31.732 110.934 31.732ZM117.178 40.13C116.467 40.13 115.83 39.9783 115.267 39.675C114.703 39.363 114.261 38.9383 113.941 38.401C113.62 37.855 113.46 37.2397 113.46 36.555C113.46 35.853 113.62 35.2333 113.941 34.696C114.261 34.15 114.703 33.7253 115.267 33.422C115.83 33.11 116.467 32.954 117.178 32.954C117.897 32.954 118.534 33.11 119.089 33.422C119.652 33.7253 120.094 34.15 120.415 34.696C120.735 35.2333 120.896 35.853 120.896 36.555C120.896 37.2397 120.735 37.855 120.415 38.401C120.094 38.9383 119.652 39.363 119.089 39.675C118.534 39.9783 117.897 40.13 117.178 40.13ZM117.178 38.336C117.49 38.336 117.763 38.258 117.997 38.102C118.239 37.946 118.43 37.7337 118.569 37.465C118.707 37.1963 118.772 36.893 118.764 36.555C118.772 36.1997 118.707 35.8877 118.569 35.619C118.43 35.3417 118.239 35.1293 117.997 34.982C117.763 34.826 117.49 34.748 117.178 34.748C116.874 34.748 116.601 34.826 116.359 34.982C116.116 35.138 115.925 35.3503 115.787 35.619C115.648 35.8877 115.579 36.1997 115.579 36.555C115.579 36.893 115.648 37.1963 115.787 37.465C115.925 37.7337 116.116 37.946 116.359 38.102C116.601 38.258 116.874 38.336 117.178 38.336ZM122.256 40V33.097H124.245L124.323 34.501L123.894 34.657C123.989 34.345 124.158 34.0633 124.401 33.812C124.652 33.552 124.951 33.344 125.298 33.188C125.645 33.032 126.009 32.954 126.39 32.954C126.91 32.954 127.348 33.0623 127.703 33.279C128.058 33.487 128.323 33.8033 128.496 34.228C128.678 34.644 128.769 35.1597 128.769 35.775V40H126.676V35.931C126.676 35.6537 126.637 35.424 126.559 35.242C126.481 35.06 126.364 34.9257 126.208 34.839C126.052 34.7523 125.857 34.7133 125.623 34.722C125.441 34.722 125.272 34.7523 125.116 34.813C124.96 34.865 124.821 34.9473 124.7 35.06C124.587 35.164 124.501 35.2853 124.44 35.424C124.379 35.5627 124.349 35.7187 124.349 35.892V40H123.296C123.071 40 122.867 40 122.685 40C122.512 40 122.369 40 122.256 40ZM134.711 40V38.128H136.245V32.772H134.711V30.9H140.002V32.772H138.468V38.128H140.002V40H134.711ZM141.883 40V33.097H143.872L143.95 34.501L143.521 34.657C143.616 34.345 143.785 34.0633 144.028 33.812C144.279 33.552 144.578 33.344 144.925 33.188C145.272 33.032 145.636 32.954 146.017 32.954C146.537 32.954 146.975 33.0623 147.33 33.279C147.685 33.487 147.95 33.8033 148.123 34.228C148.305 34.644 148.396 35.1597 148.396 35.775V40H146.303V35.931C146.303 35.6537 146.264 35.424 146.186 35.242C146.108 35.06 145.991 34.9257 145.835 34.839C145.679 34.7523 145.484 34.7133 145.25 34.722C145.068 34.722 144.899 34.7523 144.743 34.813C144.587 34.865 144.448 34.9473 144.327 35.06C144.214 35.164 144.128 35.2853 144.067 35.424C144.006 35.5627 143.976 35.7187 143.976 35.892V40H142.923C142.698 40 142.494 40 142.312 40C142.139 40 141.996 40 141.883 40ZM153.177 40.13C152.509 40.13 151.907 39.974 151.37 39.662C150.841 39.35 150.425 38.9253 150.122 38.388C149.818 37.842 149.667 37.231 149.667 36.555C149.667 35.8617 149.818 35.2463 150.122 34.709C150.425 34.163 150.841 33.734 151.37 33.422C151.907 33.11 152.509 32.954 153.177 32.954C153.792 32.954 154.355 33.0667 154.867 33.292C155.387 33.5087 155.794 33.8077 156.089 34.189L154.958 35.567C154.845 35.4197 154.706 35.2853 154.542 35.164C154.377 35.0427 154.195 34.9473 153.996 34.878C153.796 34.8087 153.588 34.774 153.372 34.774C153.042 34.774 152.752 34.852 152.501 35.008C152.249 35.1553 152.054 35.3633 151.916 35.632C151.777 35.9007 151.708 36.204 151.708 36.542C151.708 36.8713 151.777 37.1703 151.916 37.439C152.063 37.699 152.262 37.907 152.514 38.063C152.765 38.219 153.047 38.297 153.359 38.297C153.584 38.297 153.792 38.2667 153.983 38.206C154.173 38.1453 154.347 38.0587 154.503 37.946C154.667 37.8333 154.819 37.699 154.958 37.543L156.089 38.921C155.794 39.285 155.382 39.5797 154.854 39.805C154.325 40.0217 153.766 40.13 153.177 40.13Z" fill="#161616"/>
<path d="M11.3253 26C9.22445 26 7.37537 26.7327 0.484575 29.7464C0.0644043 29.9093 -0.103664 30.3986 0.0644043 30.8058L4.51887 40.4159C4.6029 40.6603 4.85467 40.8228 5.02274 40.9043C5.27484 40.9857 5.52596 40.9046 5.69403 40.8232L7.96394 39.358C8.97234 38.7064 9.39153 38.6237 10.7361 39.2753L12.5021 40.1725C14.603 41.2314 17.4588 42.6971 18.2991 43.1044C19.6437 43.756 20.7361 44 21.6605 44C23.3412 44 24.4336 43.3487 25.442 42.6971C26.4504 42.0455 38.7207 34.3069 39.8132 33.5738C41.1577 32.6779 41.9977 31.6203 41.9977 30.8058C42.0818 28.5252 39.8128 27.9551 37.796 29.1768L28.8034 35.0406C27.3748 35.8551 26.115 35.7739 25.2746 35.7739H20.2326C17.9637 35.7739 15.1909 34.9594 15.1068 34.9594C14.8547 34.878 14.77 34.634 14.8541 34.4711C14.9381 34.2267 15.1058 34.1446 15.3579 34.2261H15.4433C15.6954 34.3075 18.4685 35.0406 20.4853 35.0406H25.2746C25.9469 35.0406 26.4518 34.8777 26.7879 34.6333C27.124 34.389 27.3748 34.1446 27.5429 33.8188C27.5429 33.7374 27.6282 33.738 27.6282 33.6566V33.5738C27.7123 33.3295 27.7119 33.1675 27.7119 32.9232C27.7119 31.9458 26.8716 30.9684 25.1909 30.887C23.8464 30.8055 21.998 30.4797 20.4853 30.0725C19.645 29.8281 19.0554 29.5831 18.7193 29.4202C18.4672 29.2573 18.2151 29.0127 17.879 28.6869C16.8706 27.628 15.3589 26 11.3253 26ZM29.56 26C28.6357 26 27.6282 26.3255 26.7879 26.8956C26.1997 27.2214 23.6786 28.7693 22.166 29.6652C23.2585 29.9096 24.4343 30.0725 25.2746 30.0725C25.8629 30.0725 26.4514 30.2357 26.8716 30.3986L32.3338 26.8145C32.3338 26.8145 31.0726 26 29.56 26ZM35.106 26.8956C34.2656 26.8956 33.2585 27.2214 31.8299 28.1174L27.6282 30.887C28.3005 31.4571 28.636 32.1902 28.636 32.9232C28.636 33.4119 28.4682 33.9824 28.1321 34.4711L28.2158 34.3883L28.2995 34.3072L37.5433 28.3624C37.2912 27.3035 35.9463 26.8956 35.106 26.8956Z" fill="#015BBB"/>
<path d="M29.9101 7.288C33.5081 12.171 27.2181 17.839 25.1801 19.66L21.6621 22.741C21.2831 23.073 20.7171 23.073 20.3381 22.741L16.8201 19.66C14.7491 17.809 8.28611 11.985 12.2741 7.05C12.7931 6.407 13.4551 5.873 14.2051 5.525C16.3071 4.548 18.1991 5.085 19.5411 5.91L17.2891 11.308C17.1511 11.637 17.3931 12 17.7501 12H20.3901C20.7061 12 20.9421 12.289 20.8801 12.598L20.0201 15.647C19.9581 15.957 20.3631 16.133 20.5471 15.875L24.4351 10.791C24.6721 10.46 24.4351 10 24.0281 10H21.7581C21.3991 10 21.1571 9.633 21.2991 9.303L22.8501 5.69C23.9591 5.106 25.3451 4.757 26.9451 5.201C28.1341 5.531 29.1781 6.294 29.9101 7.288Z" fill="#015BBB"/>
</svg>
