<svg width="56" height="33" viewBox="0 0 56 33" fill="none" xmlns="http://www.w3.org/2000/svg">
<path d="M23.2241 0.319999C22.5866 0.325311 22.0394 0.776874 21.9066 1.40375L18.0975 19.9125L15.675 13.4419C15.4838 12.9372 15.011 12.5919 14.4691 12.5653C13.9325 12.5334 13.4279 12.8309 13.1835 13.3091L10.8407 18H6.24005C6.12317 18 6.0063 18.0159 5.89474 18.0425C5.41661 17.1766 4.50817 16.64 3.52005 16.64C2.01661 16.64 0.800049 17.8566 0.800049 19.36C0.800049 20.8634 2.01661 22.08 3.52005 22.08C4.50817 22.08 5.41661 21.5434 5.90005 20.6775C6.01161 20.7094 6.12317 20.72 6.24005 20.72H11.68C12.1954 20.72 12.6682 20.4278 12.8966 19.9709L14.2247 17.32L17.205 25.2781C17.4229 25.8412 17.986 26.1972 18.5863 26.1494C19.1866 26.1069 19.686 25.6659 19.8135 25.0762L23.155 8.82531L27.3413 31.8444C27.4475 32.4447 27.9469 32.9016 28.5525 32.9547C29.1582 33.0131 29.7319 32.6572 29.9497 32.0887L35.4641 17.7503L38.285 25.2781C38.471 25.7616 38.9119 26.1016 39.4272 26.1494C39.9372 26.2025 40.4366 25.9581 40.7129 25.5225L43.7144 20.72H50.1266C50.6154 21.5594 51.5079 22.08 52.48 22.08C53.9835 22.08 55.2 20.8634 55.2 19.36C55.2 17.8566 53.9835 16.64 52.48 16.64C51.5079 16.64 50.61 17.1606 50.1266 18H42.96C42.4925 18 42.0569 18.2444 41.8072 18.6375L39.8629 21.7453L36.755 13.4419C36.5532 12.9159 36.0485 12.5653 35.4854 12.56C34.9222 12.56 34.4122 12.9053 34.2104 13.4312L29.1475 26.585L24.5788 1.43562C24.4619 0.782187 23.8882 0.314687 23.2241 0.319999Z" fill="#FED500"/>
</svg>
