<svg width="445" height="437" viewBox="0 0 445 437" fill="none" xmlns="http://www.w3.org/2000/svg">
<path d="M430.62 251.167L430.628 251.148L430.636 251.13C447.369 211.513 438.292 160.788 411.128 134.555L411.121 134.548L411.114 134.541C397.775 121.559 379.558 114.241 357.873 107.004C354.184 105.773 350.398 104.545 346.534 103.292C327.972 97.2735 307.599 90.667 287.35 80.2358L287.333 80.2267L287.315 80.2176C275.177 73.843 263.114 66.0652 251.12 58.0487C248.044 55.9924 244.976 53.9233 241.911 51.8559C232.956 45.8168 224.024 39.792 214.957 34.1421C190.593 18.9593 166.214 7.11891 140.655 6.05571C115.101 4.99273 87.6615 14.6957 64.2159 31.6812C40.7888 48.6533 21.7318 72.6252 12.7028 99.5515L12.7025 99.5522C3.61797 126.629 4.3768 157.143 11.2753 189.564C18.1725 221.979 31.1281 255.944 46.0599 289.735C60.9981 323.539 77.6421 356.394 96.6057 381.982C115.633 407.656 136.451 425.275 159.521 429.94C182.547 434.375 209.044 426.025 236.983 411.201C262.972 397.413 289.35 378.508 314.267 360.651C316.036 359.383 317.797 358.121 319.55 356.866C322.765 354.558 325.942 352.284 329.077 350.04C351.515 333.982 371.832 319.442 388.779 304.578C408.06 287.667 422.564 270.678 430.62 251.167Z" stroke="#FED500" stroke-width="10"/>
</svg>
